<?xml version="1.0" encoding="utf-8"?>
<!-- Generator: Adobe Illustrator 22.0.1, SVG Export Plug-In . SVG Version: 6.00 Build 0)  -->
<svg version="1.1"
	 id="Layer_1" inkscape:output_extension="org.inkscape.output.svg.inkscape" inkscape:version="0.46" sodipodi:docname="Enodis.svg" sodipodi:version="0.32" xmlns:cc="http://creativecommons.org/ns#" xmlns:dc="http://purl.org/dc/elements/1.1/" xmlns:inkscape="http://www.inkscape.org/namespaces/inkscape" xmlns:rdf="http://www.w3.org/1999/02/22-rdf-syntax-ns#" xmlns:sodipodi="http://sodipodi.sourceforge.net/DTD/sodipodi-0.dtd" xmlns:svg="http://www.w3.org/2000/svg"
	 xmlns="http://www.w3.org/2000/svg" xmlns:xlink="http://www.w3.org/1999/xlink" x="0px" y="0px" viewBox="0 0 331.9 259"
	 style="enable-background:new 0 0 331.9 259;" xml:space="preserve">
<style type="text/css">
	.st0{fill:#152C70;}
	.st1{fill:none;stroke:#1B1918;stroke-width:0.216;}
	.st2{fill:#004A8E;}
	.st3{fill:#ECEDED;}
	.st4{fill:#FFFFFF;}
	.st5{fill:#E94D11;}
	.st6{fill:#DECAAF;}
	.st7{enable-background:new    ;}
	.st8{fill:none;}
</style>
<defs>
	
	
		<inkscape:perspective  id="perspective26" inkscape:persp3d-origin="306 : 264 : 1" inkscape:vp_x="0 : 396 : 1" inkscape:vp_y="0 : 1000 : 0" inkscape:vp_z="612 : 396 : 1" sodipodi:type="inkscape:persp3d">
		</inkscape:perspective>
	
		<inkscape:perspective  id="perspective2414" inkscape:persp3d-origin="372.04724 : 350.78739 : 1" inkscape:vp_x="0 : 526.18109 : 1" inkscape:vp_y="0 : 1000 : 0" inkscape:vp_z="744.09448 : 526.18109 : 1" sodipodi:type="inkscape:persp3d">
		</inkscape:perspective>
</defs>
<sodipodi:namedview  bordercolor="#666666" borderopacity="1.0" gridtolerance="10.0" guidetolerance="10.0" id="base" inkscape:current-layer="Layer_1" inkscape:cx="236.40961" inkscape:cy="1.3463471" inkscape:pageopacity="0.0" inkscape:pageshadow="2" inkscape:window-height="667" inkscape:window-width="640" inkscape:window-x="319" inkscape:window-y="164" inkscape:zoom="149.33333" objecttolerance="10.0" pagecolor="#ffffff" showgrid="false">
	</sodipodi:namedview>
<g id="图层_1_1_">
	<ellipse class="st0" cx="166.5" cy="84.3" rx="83.9" ry="83.9"/>
	<ellipse class="st1" cx="166.6" cy="84.2" rx="83.9" ry="83.9"/>
	<ellipse class="st2" cx="166.5" cy="84.3" rx="76.7" ry="76.7"/>
	<path class="st2" d="M28.2,163.6c-0.2-0.5-0.5-1.2-0.8-1.9c-1.4-4.5,0.9-14.5,1.3-19.6c0.1-1.1,0.7-2.8-0.4-3.5
		c-0.2-0.1-0.5-0.6-1.1-0.8c-0.9-0.3-2.2-0.2-3.1-0.1c-1.5,0.2-1.9,0.1-2.8,0.7s-2,0.9-2.9,0.8c-0.8-0.1-2-0.5-3,0s-1.5,1.1-1.9,2.7
		c0,0-2.1-0.3-3.9,1.9c-1.1,1.3-0.7,2.7-0.1,4c0.5,0.9,1.2,2.3,2,3.1c0.7,0.7,1.8,1.7,2.9,2.9c0.9,1-0.3-0.4,0.7,0.5
		c0.2,0.2,0.4,0.4,0.6,0.5c0.2,0.2,0.8,0.7,0.8,0.9c0,0.1-0.1,0.2-0.1,0.2c-0.1,0.1-0.3,0.1-0.7-0.2l-3-2.8c0,0-1.8-2-4.6-2.6
		c-0.6-0.1-1.3-0.2-1.9-0.3c-0.3,0-0.6,0-1,0.1c-0.1,0.1-0.3,0.1-0.4,0.3c-0.2,0.2-0.4,0.6-0.5,1c0,0.1,0,0.3-0.1,0.4
		c-0.1,0.5-0.2,0.5-0.6,0.9c-0.2,0.2-0.5,0.5-0.6,0.8c-0.5,0.9-0.1,2.3,0.1,3.3c0.2,0.9,0.5,1.6,0.5,1.6s-1.7,0.8-1.4,2.1
		c0.3,1.4,0.7,2.2,0.7,2.2s-0.3,0.1-0.5,0.5c-0.3,0.4-0.2,1.3-0.1,1.8c0.2,0.6,0.4,0.9,0.4,0.9s-1.1,0.7-0.8,1.7
		c0.2,0.5,0.4,1,0.5,1.4c0.1,0.2,0.1,0.4,0.2,0.6c0.5,2,2.7,2.2,5.4,1.3c0.2-0.1,0.5-0.2,0.8-0.3c4.6-1.6,11.9-5.2,16.4-4.3
		c1,0.2,1.5,0.3,2.3,1c0.9,0.8,6.8,5.1,7.5,5.6c1.1,0.8,3-0.1,2.6-1.6c-0.1-0.4-0.3-0.7-0.7-1l-7.4-5
		C28.9,164.9,28.7,164.6,28.2,163.6z"/>
	<path class="st2" d="M304.8,163.6c0.2-0.5,0.5-1.2,0.8-1.9c1.4-4.5-0.9-14.5-1.3-19.6c-0.1-1.1-0.7-2.8,0.4-3.5
		c0.2-0.1,0.5-0.6,1.1-0.8c0.9-0.3,2.2-0.2,3.1-0.1c1.5,0.2,1.9,0.1,2.8,0.7c0.9,0.6,2,0.9,2.9,0.8c0.8-0.1,2-0.5,3,0
		s1.5,1.1,1.9,2.7c0,0,2.1-0.3,3.9,1.9c1.1,1.3,0.7,2.7,0.1,4c-0.5,0.9-1.2,2.3-2,3.1c-0.7,0.7-1.8,1.7-2.9,2.9
		c-0.9,1,0.3-0.4-0.7,0.5c-0.2,0.2-0.4,0.4-0.6,0.5c-0.2,0.2-0.8,0.7-0.8,0.9c0,0.1,0.1,0.2,0.1,0.2c0.1,0.1,0.3,0.1,0.7-0.2l3-2.8
		c0,0,1.8-2,4.6-2.6c0.6-0.1,1.3-0.2,1.9-0.3c0.3,0,0.6,0,1,0.1c0.1,0.1,0.3,0.1,0.4,0.3c0.2,0.2,0.4,0.6,0.5,1c0,0.1,0,0.3,0.1,0.4
		c0.1,0.5,0.2,0.5,0.6,0.9c0.2,0.2,0.5,0.5,0.6,0.8c0.5,0.9,0.1,2.3-0.1,3.3c-0.2,0.9-0.5,1.6-0.5,1.6s1.7,0.8,1.4,2.1
		c-0.3,1.4-0.7,2.2-0.7,2.2s0.3,0.1,0.5,0.5c0.3,0.4,0.2,1.3,0.1,1.8c-0.2,0.6-0.4,0.9-0.4,0.9s1.1,0.7,0.8,1.7
		c-0.2,0.5-0.4,1-0.5,1.4c-0.1,0.2-0.1,0.4-0.2,0.6c-0.5,2-2.7,2.2-5.4,1.3c-0.2-0.1-0.5-0.2-0.8-0.3c-4.6-1.6-11.9-5.2-16.4-4.3
		c-1,0.2-1.5,0.3-2.3,1c-0.9,0.8-6.8,5.1-7.5,5.6c-1.1,0.8-3-0.1-2.6-1.6c0.1-0.4,0.3-0.7,0.7-1l7.4-5
		C304.1,164.9,304.3,164.6,304.8,163.6z"/>
	<path class="st3" d="M181,141.4c0.1-0.3,0.2-0.6,0.3-0.9c1.1-0.5,2-0.7,2.4-0.7c0.8,0,1.4,0.2,1.8,0.6c0.3,0.4,0.4,0.8,0.3,1.3
		c-0.1,0.4-0.3,0.8-0.5,1.1c-0.3,0.4-0.6,0.7-1.1,0.9c-0.4,0.2-0.9,0.3-1.4,0.3c-0.6,0-1.1-0.2-1.4-0.6
		C180.9,142.9,180.8,142.2,181,141.4z M190.1,132.1c-1.2,0-2.4,0.3-3.6,0.8c-1.1,0.5-2.3,1.3-3.4,2.4s-2,2.2-2.7,3.3
		s-1.1,2.2-1.3,3.2c-0.2,0.8-0.2,1.5,0,2c0.2,0.4,0.4,0.8,0.8,1s0.9,0.3,1.4,0.4c0.9,0,1.9-0.2,2.9-0.7c1-0.4,1.8-1.1,2.6-1.9
		c0.5-0.6,0.9-1.3,1.1-2.2c0.2-0.7,0-1.3-0.4-1.9c-0.3-0.5-0.9-0.7-1.6-0.7c-1.1,0-2.5,0.5-4.2,1.4c0.1-0.3,0.3-0.6,0.5-1
		c0.6-1,1.2-1.9,2.1-2.8c0.7-0.7,1.5-1.3,2.4-1.7c0.6-0.3,1.2-0.4,1.9-0.4c0.4,0,0.8,0.2,1.1,0.7l1.8-1.8
		C191.1,132.2,190.6,132.1,190.1,132.1z M178.9,130.9c-1.2,0.8-2.2,1.4-3.1,1.6s-2.1,0.2-3.6,0l-3.7,6l0.6,0.2
		c0.5-0.2,1-0.3,1.5-0.3c0.6,0,1,0.2,1.3,0.5c0.3,0.4,0.4,1,0.3,1.7c-0.1,0.6-0.4,1.1-0.8,1.6s-0.9,0.9-1.5,1.2
		c-0.5,0.3-1,0.4-1.5,0.4c-0.6,0-1.3-0.3-1.9-0.8l-1.4,1.8c0.6,0.2,1.2,0.3,1.9,0.3c1,0,2.1-0.3,3.3-1s2.2-1.5,3-2.4
		c0.6-0.7,0.9-1.4,1.1-2.2c0.1-0.6,0.1-1.1,0-1.6c-0.1-0.4-0.4-0.7-0.7-0.9c-0.4-0.3-1-0.5-1.7-0.5c-0.5,0-1,0.2-1.5,0.6l1.8-2.8
		c1.2,0.1,2.1,0.1,2.8,0c0.7-0.2,1.9-1,3.6-2.4L178.9,130.9z M159.6,138.3c-0.6,0-1.1-0.2-1.4-0.5c-0.3-0.4-0.4-0.9-0.2-1.7
		c0.1-0.5,0.3-0.9,0.6-1.3c0.3-0.3,0.6-0.6,1-0.8c0.4-0.3,0.9-0.4,1.5-0.4c0.4,0,0.8,0.1,1.1,0.3s0.5,0.5,0.6,0.9s0.1,0.9,0,1.5
		c-0.1,0.3-0.2,0.6-0.3,0.9c-0.4,0.2-0.7,0.4-1.1,0.6C160.6,138.1,160,138.3,159.6,138.3z M162.9,131.9c-1.1,0-2.3,0.3-3.5,1
		s-2,1.4-2.5,2.1s-0.8,1.3-0.9,2c-0.2,0.8-0.1,1.5,0.2,2c0.4,0.6,1.1,0.8,2,0.8c0.8,0,1.8-0.3,2.9-1c0.4-0.2,0.7-0.5,1.1-0.7
		c-0.2,0.4-0.4,0.9-0.6,1.3c-0.5,0.9-1.1,1.7-1.8,2.5c-0.6,0.6-1.2,1.1-1.9,1.4c-0.6,0.3-1.1,0.4-1.7,0.4c-0.7,0-1.3-0.3-1.9-0.8
		l-1.8,1.8c0.7,0.3,1.5,0.4,2.4,0.4c1,0,2.1-0.3,3.2-0.8c1.1-0.6,2.2-1.3,3.1-2.2c0.9-0.9,1.6-1.8,2.1-2.8c0.7-1.3,1.3-2.7,1.6-4.1
		c0.2-0.9,0.2-1.6,0-2.3c-0.1-0.4-0.3-0.7-0.6-0.9C163.9,132.1,163.4,132,162.9,131.9z M150.3,132l-4.9,2.5l0.4,0.4l1.8-0.7
		l-4.1,9.1c-0.2,0.4-0.4,0.6-0.6,0.7l-1.6,0.2l-1.1,0.8h6.7l0.9-0.8c-0.6-0.1-1.3-0.2-2-0.3c-0.3,0-0.4-0.1-0.4-0.3s0.2-0.9,0.7-2
		L150.3,132z"/>
	<path class="st4" d="M154.4,62.3L154.4,62.3L154.4,62.3z"/>
	<g>
		<path class="st4" d="M120.1,65.4h5.7v11.9c0,4.3-3.4,5.9-9.5,5.9c-6.3,0-9.6-1.4-9.6-5.7v-12h5.7v11c0,2.7,1.7,3.1,3.6,3.1
			c2.1,0.1,4.3-0.4,4.3-3.1v-11H120.1z"/>
		<path class="st4" d="M178.7,70.7h-4.5c-2.5-4.6-9.1-0.6-4.6,0.8c0.6,0.1,1.5,0.3,2.5,0.4c4.7,1.1,7.1,2.9,7.1,5.6
			c-0.1,3.9-3.1,6.1-8.8,6c-6.6,0-8-2.8-8.5-6.6h5.3c0.1,0.7,1.3,1.8,1.7,2.2c0.4,0.3,1.1,0.4,1.8,0.4c1.8,0,2.7-0.4,2.7-1.3
			c0-0.7-1.3-1.4-3.6-1.8c-4.9-1.1-7.3-3.1-7.3-5.9c0.1-3.8,2.8-5.6,8.1-5.7C175.3,65.1,178,67.1,178.7,70.7z"/>
		<polygon class="st4" points="181.5,69.9 181.5,65.4 200.2,65.4 200.2,69.9 193.3,69.9 193.3,84.3 188.3,84.3 188.3,69.9 		"/>
		<path class="st4" d="M211.2,65.4c4.5,0,8.2,2.8,9.6,6.7h-5.4c-1-1.3-2.5-2-4.2-2c-2.9,0-5.3,2.4-5.3,5.2c0,2.8,2.4,5.2,5.3,5.2
			c1.8,0,3.4-0.8,4.3-2.2h5.3c-1.3,4-5.2,7-9.6,7c-5.6,0-10.2-4.5-10.2-9.9S205.6,65.4,211.2,65.4z"/>
		<path class="st4" d="M129.8,83.4c-3.4,6.8-5.3,13.4-6,19c-1.3,11.7,3.8,18,15.9,17c11.4-1,27.6-8.5,43-22.9
			c3.2-3.1,6.3-6.1,9.1-9.2h-7.7c-14.2,14.9-31.4,27.5-43,29.3c-18.1,2.8-17-9.9-12.4-20.5c1.3-3.1,2.7-6,4.3-8.9
			C131.8,86.1,130.7,84.8,129.8,83.4z M154.1,60.5c16.8-15.8,32.1-25.4,43.3-27.1c11.7-1.7,13.8,6,10.5,18c-0.8,2.7-2,5.6-3.5,8.5
			h5.2c1.3-3.1,2.1-6.1,2.7-9.1c2.2-12.7-2.5-20.8-16.1-20.4c-12.7,0.4-28.8,9.2-46.1,25.4c-0.6,0.6-1.1,1.1-1.7,1.7
			C150.5,58.3,152.4,59.3,154.1,60.5z"/>
		<path class="st4" d="M173,106.3c8.2,5.9,16.8,9.9,23.2,11.2c14.8,3.6,14.1-11,10.3-21.4c-1.1-3.1-2.5-5.9-4-8.8h4.9
			c2.1,5.4,3.4,10.6,3.9,15.1c1.3,11.7-4.9,19-16.8,18c-7.4-0.6-16.6-4.2-26.2-10.9C169.8,108.4,171.4,107.4,173,106.3z"/>
		<path class="st4" d="M181.3,60.1c-4-4.2-8.1-7.8-12-11.2c1.5-1.3,3.1-2.4,4.6-3.5c4.2,3.2,8.4,7,12.7,11c1.3,1.3,2.4,2.4,3.6,3.6
			H181.3z"/>
		<path class="st4" d="M151.5,87.6c4.6,4.5,9.5,8.8,14.1,12.8c0.3,0.3,0.7,0.6,1,0.8c-1.5,1.3-3.2,2.4-4.7,3.5
			c-3.1-2.5-6-5.2-9.1-8.2c-2.4-2.4-4.6-4.7-6.7-7.1l0,0c-0.8,0.1-1.7,0.1-2.5,0.1c-8.4,0-15.1-6.8-15.1-15.1c0-2.7,0.7-5.3,2-7.4
			c-2.7-5.3-4.7-10.2-5.7-16.1c-2.2-12.7,3.1-21.5,16.2-21.1c7.7,0.3,16.6,4,26.4,10.7c-1.5,1.1-3.1,2.1-4.6,3.4
			c-8.9-6.6-17.2-10.3-23.7-10.6c-7.8-0.3-13.1,8.4-10.9,20.7c0.6,3.5,2.1,7,4,10.6l0,0c1,1.8,2.1,3.5,3.2,4.9
			c-2.4,4.5-1.4,10.5,2.9,13.7c3.6,2.7,8.7,1.8,12.7-2.5l-2.9-2.2c-4.7,4.5-10.3,2.2-10.2-3.8h14.8c0-0.1,0-0.1,0-0.3
			c0.3-5.7-2.5-10.3-8.2-10.3c-2.9,0-5.6,1.1-7.5,3.1c-0.4,0.4-0.7,0.8-1.1,1.3l-2.8-4.9c2.7-2.7,6.4-4.3,10.5-4.3
			c8.4,0,15.1,6.8,15.1,15.1C158.9,80.1,155.9,85,151.5,87.6z"/>
		<path class="st4" d="M144.8,67.4c2.4,0,4.5,2.1,4.5,4.6c0,0,0,0,0,0.1h-10.5c0,0,0,0,0-0.1C139.3,69.3,142,67.4,144.8,67.4z"/>
	</g>
	<path class="st5" d="M255.6,61.7L255.6,61.7c2,10.6,16.5,18.2,14.6,36.1c3.4-27.1,11.9-31.4,7.1-45.8c5.2,7.1,7.5,20,5.5,29.1
		c-3,13.9-9.3,14.6-15.3,32C268.3,91.5,253.3,84.7,255.6,61.7z"/>
	<path class="st5" d="M177.1,178.6c17.1-1.7,21.4-11.5,42.2-19.9c-10.2,8.2-12,22.1-32,22.7c22.3,0.1,37.6,8.6,53.8-2.1
		c-9.7,10.8-21,14-31.7,13.6c-11.9-0.4-20.6-6-30.5-10.7c-2.5-1.2-4.7-1-7.3-0.3c-0.6,0.2-1.2,0.4-1.8,0.6c-11.4,4-23,16.7-23,16.7
		s-3.8-3.9-4-4.2c-0.1-0.2,10-9.3,22.3-13.8l0.8-0.3c1.4-0.5,2.9-0.9,4.3-1.3c0.2,0,0.4-0.1,0.6-0.1c1-0.2,1.9-0.4,2.9-0.5
		C174.9,178.8,176,178.7,177.1,178.6z"/>
	<path class="st5" d="M265,55.5L265,55.5c-0.8-1.5-3.2-4.4-5.4-7.3c-2.5-3.3-4.8-6-7.4-11.8c-4.8-11.2-7.5-15.5-10.4-19.8
		c0-0.1,2.1,1.4,4.9,3.2c4.1,2.8,9.8,6.8,12.8,11.6c4.6,7.2,5,14.7,5.1,19.7C264.6,52.7,265.3,55.3,265,55.5z"/>
	<path class="st5" d="M270.2,82.6L270.2,82.6c-3.2-15.9-25-24.6-20-45.1c0.4,12.3,15.5,15.9,19.1,33.6c-3.1-19.3,1.9-28.9-7-38.1
		c10.3,5.7,13.2,13.5,13.2,21.8C275.5,64.4,271.1,73.1,270.2,82.6z"/>
	<path class="st5" d="M203,180L203,180c7-4,11.9-8.6,18.2-20.5c6.5-12.3,19.1-21.9,20.1-22.6c-9.8,13-6.5,28.6-26.1,38.9
		c4.2-1.3,13.1-6.8,26.7-9.4c8.7-1.7,18.3-6.2,23.5-13.7c-1.9,7.1-9.4,16.9-26.1,24.4C224.2,183.9,219.3,178,203,180z"/>
	<path class="st5" d="M254.7,142.1L254.7,142.1c3.8-13,2.5-17.3,1.8-24.5c-0.8-8-1.9-16.6,1.6-31.5c-0.7,11.5,12.7,24.6,3.2,44.9
		c2-2.8,5.4-12.8,11.1-20.5c5.2-7,10.7-14.5,11.4-24.2c1.7,4.7,1.4,19.8-6.2,33.2C272.3,128.9,263.6,132.7,254.7,142.1z"/>
	<path class="st5" d="M230.6,166.1L230.6,166.1c8.5-8.8,11.6-23.8,14.6-33.2c2.4-7.6,4-12.4,9.1-19c-3.5,9.4-1.3,16.9-2.4,25
		c-0.8,5.3-2.9,10.8-9.1,17.4c3.6-2,8.7-8.5,15.7-13.2c9.2-6.2,18.5-11.3,21.2-21.6c0.7,1.1-2.2,19.3-14.3,28.3
		C255.2,157.4,239.6,162.5,230.6,166.1z"/>
	<path class="st5" d="M77.4,61.7L77.4,61.7c-2,10.6-16.5,18.2-14.6,36.1C59.4,70.7,50.9,66.4,55.7,52c-5.2,7.1-7.5,20-5.5,29.1
		c3,13.9,9.3,14.6,15.3,32C64.8,91.5,79.8,84.7,77.4,61.7z"/>
	<path class="st5" d="M155.9,178.6c-17.1-1.7-21.4-11.5-42.2-19.9c10.2,8.2,12,22.1,32,22.7c-22.3,0.1-37.6,8.6-53.8-2.1
		c9.7,10.8,21,14,31.7,13.6c11.9-0.4,20.6-6,30.5-10.7c2.5-1.2,4.7-1,7.3-0.3c0.6,0.2,1.2,0.4,1.8,0.6c11.4,4,23,16.7,23,16.7
		s3.8-3.9,4-4.2c0.1-0.2-10-9.3-22.3-13.8l-0.8-0.3c-1.4-0.5-2.9-0.9-4.3-1.3c-0.2,0-0.4-0.1-0.6-0.1c-1-0.2-1.9-0.4-2.9-0.5
		C158.1,178.8,157,178.7,155.9,178.6z"/>
	<path class="st5" d="M68,55.5L68,55.5c0.8-1.5,3.2-4.4,5.4-7.3c2.5-3.3,4.8-6,7.4-11.8c4.8-11.2,7.5-15.5,10.4-19.8
		c0-0.1-2.1,1.4-4.9,3.2c-4.1,2.8-9.8,6.8-12.8,11.6c-4.6,7.2-5,14.7-5.1,19.7C68.4,52.7,67.7,55.3,68,55.5z"/>
	<path class="st5" d="M62.8,82.6L62.8,82.6c3.2-15.9,25-24.6,20-45.1c-0.4,12.3-15.5,15.9-19.1,33.6c3.1-19.3-1.9-28.9,7-38.1
		c-10.3,5.7-13.2,13.5-13.2,21.8C57.6,64.4,61.9,73.1,62.8,82.6z"/>
	<path class="st5" d="M130,180L130,180c-7-4-11.9-8.6-18.2-20.5c-6.5-12.3-19.1-21.9-20.1-22.6c9.8,13,6.5,28.6,26.1,38.9
		c-4.2-1.3-13.1-6.8-26.7-9.4c-8.7-1.7-18.3-6.2-23.5-13.7c1.9,7.1,9.4,16.9,26.1,24.4C108.8,183.9,113.7,178,130,180z"/>
	<path class="st5" d="M78.3,142.1L78.3,142.1c-3.8-13-2.6-17.3-1.8-24.5c0.8-8,1.9-16.6-1.6-31.5c0.7,11.5-12.7,24.6-3.2,44.9
		c-2-2.8-5.4-12.8-11.1-20.5c-5.2-7-10.7-14.5-11.4-24.2c-1.7,4.7-1.4,19.8,6.2,33.2C60.7,128.9,69.4,132.7,78.3,142.1z"/>
	<path class="st5" d="M102.4,166.1L102.4,166.1c-8.5-8.8-11.6-23.8-14.6-33.2c-2.4-7.6-4-12.4-9.1-19c3.5,9.4,1.3,16.9,2.4,25
		c0.8,5.3,2.9,10.8,9.1,17.4c-3.6-2-8.7-8.5-15.7-13.2c-9.2-6.2-18.5-11.3-21.2-21.6c-0.7,1.1,2.2,19.3,14.3,28.3
		C77.8,157.4,93.4,162.5,102.4,166.1z"/>
	<path class="st2" d="M93.2,237.6c0,0-53.8-20.5-75.6-55.7l20.9-8.6l-0.4-23c0,0,25.9,26.7,43.4,36.5s26.1,13.9,26.1,13.9
		L93.2,237.6z"/>
	<path class="st6" d="M17.6,184.8c21,31.5,66.5,50.8,74,53.8c0.8,0.3,1.7,0.7,2.5,1l0.6-1.5l14.4-36.9l0.5-1.4l-1.3-0.6
		c0,0-8.5-4-26-13.8c-17.3-9.7-42.9-36.2-43-36.3l-2.7-2.7l0.5,25.6l-21.5,9.2C16.3,182.5,16.8,183.6,17.6,184.8z M92.4,235.6
		c-8.4-3.4-51.8-22.2-72-52.3l19.9-8.8l-0.6-20.3c7.1,7,26.7,26.1,41.1,34.1c13.6,7.7,21.9,11.8,24.9,13.3L92.4,235.6z"/>
	<path class="st2" d="M239.8,237.6c0,0,53.8-20.5,75.6-55.7l-20.9-8.6l0.4-23c0,0-25.9,26.7-43.4,36.5s-26.1,13.9-26.1,13.9
		L239.8,237.6z"/>
	<path class="st6" d="M315.4,184.8c-22.9,34.3-74.9,54.2-75,54.3l-1.5,0.6l-0.6-1.5l-14.4-36.9l-0.5-1.4l1.3-0.6c0,0,8.5-4,26-13.8
		c17.3-9.7,42.9-36.2,43-36.3l2.7-2.7l-0.5,25.6l21.5,9.2C316.7,182.5,316.2,183.6,315.4,184.8z M240.7,235.6
		c8.4-3.4,51.8-22.2,72-52.3l-19.9-8.8l0.6-20.3c-7.1,7-26.7,26.1-41.1,34.1c-13.6,7.7-21.9,11.8-24.9,13.3L240.7,235.6z"/>
	<path class="st2" d="M97,201.9c0,0,7.9,1.4,21,3.9c13.1,2.6,38.3,2.7,49.7,12.2c11.4-9.5,36.6-9.6,49.7-12.2s21-3.9,21-3.9
		l7.3,38.8c-13.9,7.2-32.5,6.6-50.7,9.7c-18.1,3.1-27.3,7-27.3,7s-9.2-4-27.3-7s-36.8-2.4-50.7-9.7L97,201.9z"/>
	<path class="st6" d="M117.7,207.4c-9.7-1.9-16.5-3.1-19.4-3.7l-6.8,36.1c9.1,4.4,20.4,5.6,32.1,6.8c5.6,0.6,11.4,1.2,17.1,2.2
		c15.7,2.7,24.7,6,27,6.9c2.3-0.9,11.4-4.2,27-6.9c5.7-1,11.4-1.6,17-2.2c11.7-1.2,23-2.4,32.1-6.8l-6.8-36.1
		c-2.9,0.5-9.8,1.8-19.4,3.7c-3.5,0.7-7.7,1.2-12.3,1.7c-12.9,1.5-28.6,3.4-36.7,10.1l-1,0.8l-1-0.8c-8.1-6.7-23.8-8.6-36.7-10.1
		C125.4,208.6,121.1,208.1,117.7,207.4z M97.3,200.4c0,0,7.8,1.4,21,3.9c3.3,0.6,7.5,1.1,12.1,1.7c12.8,1.5,28.3,3.4,37.3,10.1
		c9-6.7,24.5-8.5,37.3-10.1c4.6-0.5,8.7-1,12.1-1.7c13.3-2.6,21-3.9,21-3.9l1.5-0.3l0.3,1.5l7.3,38.8l0.2,1.1l-1,0.5
		c-9.8,5.1-21.8,6.4-34.3,7.7c-5.6,0.6-11.2,1.2-16.9,2.1c-17.9,3.1-26.9,6.9-26.9,6.9l-0.6,0.3l-0.6-0.3c0,0-9-3.9-26.9-6.9
		c-5.6-1-11.3-1.6-16.9-2.1c-12.5-1.3-24.5-2.6-34.3-7.7l-1-0.5l0.2-1.1l7.3-38.8l0.3-1.5L97.3,200.4z"/>
	<path class="st4" d="M215,217.5l4.9-1.7l5.7,6.9l0.3-9l4.6-1.6l-1.6,13.7l2.5,7.1l-4.3,1.5l-2.5-7.3L215,217.5z M199.6,220.9l13-3
		l0.8,3.5l-4.2,1l3.7,16l-4.5,1l-3.7-16l-4.2,1L199.6,220.9z M191.1,222.5l4.5-0.8l3.5,19.7l-4.5,0.8L191.1,222.5z M173.8,223.9
		l4.7-0.4c0.2,0,0.5,0,0.7-0.1c0.3,0,0.4,0,0.4-0.1c2.5-0.2,4.4,0,5.6,0.8s1.9,2.1,2.1,3.9c0.1,1.2-0.1,2.3-0.7,3.1
		c-0.6,0.8-1.4,1.5-2.6,1.9c0.6,0.1,1.1,0.3,1.5,0.7s0.8,1.1,1.3,2.2l2.8,6.5l-4.7,0.4l-2.1-5.5c-0.4-1-0.7-1.6-1.1-1.9
		s-0.9-0.4-1.5-0.4l-0.9,0.1l0.7,8.1l-4.5,0.4L173.8,223.9z M178.5,226.8l0.4,5.1l1-0.1c1.1-0.1,1.9-0.4,2.4-0.8s0.7-1.1,0.6-2
		c-0.1-1-0.4-1.6-0.9-2s-1.3-0.5-2.5-0.4L178.5,226.8z M155.2,223.5l4.6,0.2l-0.4,12.8c-0.1,1.6,0.1,2.7,0.5,3.3s1.1,0.9,2,1
		c1,0,1.7-0.2,2.1-0.8c0.4-0.6,0.7-1.7,0.7-3.2l0.4-12.8l4.4,0.2l-0.4,12.2c-0.1,2.7-0.8,4.7-2,6s-3.1,1.9-5.5,1.8s-4.2-0.8-5.3-2.1
		s-1.6-3.4-1.5-6.1L155.2,223.5z M151.6,223.7l-0.7,3.7c-0.6-0.5-1.1-0.8-1.7-1.1c-0.6-0.2-1.2-0.4-1.9-0.5c-1.7-0.2-3,0.2-4.1,1.2
		s-1.7,2.6-2,4.7c-0.3,2.2-0.1,3.9,0.7,5.2s2,2.1,3.7,2.3c0.6,0.1,1.3,0.1,1.9,0s1.3-0.3,2-0.6l-0.3,3.8c-0.7,0.2-1.5,0.3-2.3,0.3
		s-1.6,0-2.5-0.1c-2.9-0.4-5-1.6-6.5-3.7c-1.4-2.1-1.9-4.7-1.5-7.8s1.6-5.4,3.6-7.1c1.9-1.6,4.3-2.2,7.1-1.8
		c0.8,0.1,1.5,0.3,2.3,0.6C150.1,222.9,150.9,223.3,151.6,223.7z M123.5,217.9l11,2.8l-0.8,3.2l-6.6-1.6l-1.2,4.6l6.2,1.6l-0.8,3.2
		l-6.2-1.6l-1.2,5l6.9,1.7l-0.8,3.3l-11.3-2.8L123.5,217.9z M118,216.8l-1.5,3.3c-0.6-0.5-1.1-1-1.7-1.4s-1.1-0.7-1.7-0.9
		c-0.8-0.3-1.5-0.4-2.1-0.2s-1,0.6-1.2,1.2s-0.2,1.1,0,1.6s0.8,1.3,1.8,2.3c1.6,1.7,2.6,3,2.9,4s0.2,2.1-0.3,3.4
		c-0.7,1.8-1.8,3-3.3,3.6c-1.6,0.6-3.4,0.5-5.4-0.2c-0.7-0.3-1.4-0.6-2.2-1c-0.7-0.4-1.5-0.9-2.3-1.5l1.6-3.3
		c0.7,0.7,1.3,1.2,1.9,1.7c0.6,0.4,1.3,0.8,1.9,1c0.9,0.3,1.6,0.4,2.2,0.1c0.6-0.2,1.1-0.7,1.3-1.4c0.4-1-0.3-2.3-1.9-4.1
		c-0.2-0.2-0.4-0.4-0.5-0.5c-1.3-1.4-2.1-2.5-2.3-3.5c-0.3-0.9-0.2-2,0.3-3.2c0.6-1.8,1.7-2.9,3.2-3.5s3.3-0.5,5.4,0.2
		c0.6,0.2,1.3,0.5,1.9,0.9C116.7,215.9,117.3,216.3,118,216.8z"/>
</g>
<g class="st7">
	<path class="st4" d="M259.1,195.9l1.2-2.7c1.1,0.1,2.2,0.3,3.2,0.6l-0.8,1.9l2.2-1.6l1.8,2.5l-5,3.6c1.2,1.6,2.3,2.8,3.4,3.8
		c-0.2-1.4-0.5-3.1-0.9-4.9l3.2-0.6c0.7,3.1,1,5.7,0.9,8c0.2,0.2,0.4,0.3,0.8,0.5c0.1,0.1,0.2,0.1,0.3,0.1c0.3,0.1,0.5,0.1,0.7,0
		s0.2-0.4,0-0.7c-0.3-0.7-0.7-1.6-1.4-2.8c0.4-0.1,0.9-0.2,1.5-0.4s1-0.3,1.2-0.4c0.8,1.4,1.3,2.7,1.7,3.7c0.5,1.4,0.2,2.5-0.9,3.4
		c-1.2,0.9-2.7,0.9-4.5,0.1c0,0.1-0.1,0.2-0.2,0.3c-0.2,1-0.6,2.3-1.1,4c-1-0.3-2.1-0.6-3.3-0.8c0.8-1.9,1.3-3.7,1.5-5.4
		c-1.9-1.5-3.8-3.5-5.9-6.1l-5.2,3.7l1.2,1.6l4.5-3.3c0.9,1.2,2,2.8,3.3,4.9c1.3,1.9,1.2,3.4-0.4,4.5c-0.5,0.4-1.1,0.9-1.9,1.5
		c-0.3-0.3-0.9-1-1.9-1.8c0.8,1.4,1.5,3.2,2,5.5c-0.3,0-0.8,0-1.5,0c-0.9,0-1.6,0.1-2.1,0.1c-0.4-2.5-1.6-5-3.5-7.5l-4.3-6l7.8-5.7
		c-0.7-0.9-1.3-1.8-1.9-2.7l2.7-2c0.6,0.8,1.2,1.7,1.9,2.7l1.7-1.3C260.9,196.3,260,196.1,259.1,195.9z M256.8,209.9
		c0.1,0.2,0.3,0.5,0.5,0.9c0.6,0.8,1,1.4,1.2,1.9c0.5-0.3,0.9-0.6,1.2-0.9c0.6-0.4,0.7-0.8,0.3-1.4c-0.2-0.2-0.4-0.6-0.6-1
		c-0.3-0.4-0.5-0.7-0.7-0.9L256.8,209.9z"/>
	<path class="st4" d="M284.2,178.7l6.6,9.1c0.7-0.3,1.4-0.5,2.1-0.8c0.6,1.2,1.1,2.3,1.5,3.3c0.6,1.7,0.1,3.1-1.6,4.3l-3.9,2.8
		c-2,1.5-3.6,1.2-5-0.7l-0.8-1l-3,2.2l0.9,1.3l-2.9,2.1l-8.5-11.8l5.9-4.2l-1.4-1.9l2.9-2.1l1.4,1.9L284.2,178.7z M274.3,189.8
		l1.1,1.5l3-2.2l-1.1-1.5L274.3,189.8z M277.2,193.8l1.1,1.5l3-2.2l-1.1-1.5L277.2,193.8z M283.2,183.4l-3,2.2l1.1,1.5l3-2.2
		L283.2,183.4z M287.1,188.9l-1.1-1.5l-3,2.2l1.1,1.5L287.1,188.9z M290.7,190.7c0,0-0.1-0.1-0.1-0.3l-0.1-0.1l-4.5,3.3l0.3,0.4
		c0.5,0.8,1.2,0.9,1.9,0.3l2.1-1.5C291,192.3,291.1,191.6,290.7,190.7z"/>
</g>
<path class="st4" d="M51.5,176.8l15.1,11.1l-1.8,2.6l-6.1-4.5l-4.1,5.6l6.9,5.1l-2,2.7l-6.9-5.1l-3.7,5l-2.9-2.2l3.7-5l-6.9-5.1
	l2-2.7l6.9,5.1l4.1-5.6l-6.1-4.5L51.5,176.8z M51.3,181.3c0.3,2.3,0.7,4.1,0.8,5.5l-3.5,0.2c-0.1-2-0.2-3.8-0.5-5.5L51.3,181.3z
	 M62.1,189.3l1,3.1c-1.7,0.4-3.7,0.8-5.6,1.1l-0.7-3.3C58.9,190,60.6,189.6,62.1,189.3z"/>
<path class="st4" d="M68.9,196.9l2.7-4.2l6.6,4.3c0.1-0.3,0.2-0.9,0.4-1.5c0-0.2,0.1-0.4,0.1-0.4l3.6,2.2c-0.1,0.3-0.3,1-0.7,2.1
	l6.3,4l-2.8,4.2l-3-2l1.1-1.6l-7.3-4.8l2.8,2.9c-0.8,0.5-1.4,0.9-2.2,1.2l8.7,5.6l-1.7,2.7l-2.7-1.7c-1.5,1.1-3,1.7-4.5,2.2
	c1.2,1.4,2.3,2.9,3.5,4.6l-3.1,1.7c-1.5-2.3-2.9-4.3-4.3-6.2c-2.6-0.3-6-1.3-10.1-3c0.3-1.4,0.4-2.6,0.5-3.5
	c3.4,1.5,5.6,2.5,6.8,2.7c-1.1-1.5-2.2-3-3.3-4.3c1.1-0.4,2.2-0.9,3.3-1.3l-3.6-2.4l1.7-2.7l5.3,3.5c1-0.5,2-1.1,2.9-1.7l-2.9-1.8
	l-1.1,1.6L68.9,196.9z M71.1,205.5c0.8,0.9,1.6,2.1,2.7,3.4c1.3-0.1,2.5-0.4,3.6-1.2l-4.2-2.8C72.4,205,71.7,205.4,71.1,205.5z"/>
<ellipse class="st8" cx="166.5" cy="84.3" rx="76.7" ry="76.7"/>
</svg>
