<svg id="Layer_1" data-name="Layer 1" xmlns="http://www.w3.org/2000/svg" viewBox="0 0 236.294 199.008"><title>BWC_logo</title><g id="图层_1" data-name="图层 1"><circle cx="118.147" cy="84.108" r="83.9" style="fill:#152c70"/><circle cx="118.247" cy="84.008" r="83.9" style="fill:none;stroke:#1b1918;stroke-width:0.2160000056028366px"/><circle cx="118.147" cy="84.108" r="76.7" style="fill:#004a8e"/><path d="M139.6585,167.55l.3-.9a6.9609,6.9609,0,0,1,2.4-.7,2.4447,2.4447,0,0,1,1.8.6,1.5166,1.5166,0,0,1,.3,1.3,3.6966,3.6966,0,0,1-.5,1.1,2.4447,2.4447,0,0,1-1.1.9,3.194,3.194,0,0,1-1.4.3,1.6777,1.6777,0,0,1-1.4-.6A1.9949,1.9949,0,0,1,139.6585,167.55Zm9.1-9.3a9.3758,9.3758,0,0,0-3.6.8,11.8231,11.8231,0,0,0-3.4,2.4,19.5941,19.5941,0,0,0-2.7,3.3,9.3874,9.3874,0,0,0-1.3,3.2,3.368,3.368,0,0,0,0,2,1.9957,1.9957,0,0,0,.8,1,5.7315,5.7315,0,0,0,1.4.4,6.4819,6.4819,0,0,0,2.9-.7,7.9193,7.9193,0,0,0,2.6-1.9,5.079,5.079,0,0,0,1.1-2.2,2.1816,2.1816,0,0,0-.4-1.9,1.7527,1.7527,0,0,0-1.6-.7,9.7617,9.7617,0,0,0-4.2,1.4,9.25,9.25,0,0,1,.5-1,13.6612,13.6612,0,0,1,2.1-2.8,8.0677,8.0677,0,0,1,2.4-1.7,4.0582,4.0582,0,0,1,1.9-.4,1.27,1.27,0,0,1,1.1.7l1.8-1.8C149.7586,158.35,149.2586,158.25,148.7586,158.25Zm-11.2-1.2a10.1921,10.1921,0,0,1-3.1,1.6,10.7086,10.7086,0,0,1-3.6,0l-3.7,6,.6.2a4.0126,4.0126,0,0,1,1.5-.3,1.7275,1.7275,0,0,1,1.3.5,2.2907,2.2907,0,0,1,.3,1.7,3.4649,3.4649,0,0,1-.8,1.6,4.4275,4.4275,0,0,1-1.5,1.2,2.822,2.822,0,0,1-1.5.4,3.1462,3.1462,0,0,1-1.9-.8l-1.4,1.8a5.8216,5.8216,0,0,0,1.9.3,6.5454,6.5454,0,0,0,3.3-1,12.1768,12.1768,0,0,0,3-2.4,5.0825,5.0825,0,0,0,1.1-2.2,4.295,4.295,0,0,0,0-1.6,1.5963,1.5963,0,0,0-.7-.9,2.86,2.86,0,0,0-1.7-.5,2.4017,2.4017,0,0,0-1.5.6l1.8-2.8a12.8712,12.8712,0,0,0,2.8,0,13.209,13.209,0,0,0,3.6-2.4Zm-19.3,7.4a1.9779,1.9779,0,0,1-1.4-.5,1.8642,1.8642,0,0,1-.2-1.7,3.0993,3.0993,0,0,1,.6-1.3,3.9153,3.9153,0,0,1,1-.8,2.41,2.41,0,0,1,1.5-.4,2.0158,2.0158,0,0,1,1.1.3,1.4562,1.4562,0,0,1,.6.9,3.7507,3.7507,0,0,1,0,1.5l-.3.9c-.4.2-.7.4-1.1.6A6.206,6.206,0,0,1,118.2586,164.45Zm3.3-6.4a6.939,6.939,0,0,0-3.5,1,7.86,7.86,0,0,0-2.5,2.1,4.45,4.45,0,0,0-.9,2,2.6321,2.6321,0,0,0,.2,2,2.2087,2.2087,0,0,0,2,.8,5.5838,5.5838,0,0,0,2.9-1c.4-.2.7-.5,1.1-.7-.2.4-.4.9-.6,1.3a14.3711,14.3711,0,0,1-1.8,2.5,6.2223,6.2223,0,0,1-1.9,1.4,3.5333,3.5333,0,0,1-1.7.4,2.9255,2.9255,0,0,1-1.9-.8l-1.8,1.8a6.0511,6.0511,0,0,0,2.4.4,7.9375,7.9375,0,0,0,3.2-.8,13.4322,13.4322,0,0,0,3.1-2.2,10.8044,10.8044,0,0,0,2.1-2.8,15.8628,15.8628,0,0,0,1.6-4.1,4.4652,4.4652,0,0,0,0-2.3,1.4564,1.4564,0,0,0-.6-.9A3.4373,3.4373,0,0,1,121.5585,158.05Zm-12.6.1-4.9,2.5.4.4,1.8-.7-4.1,9.1a1.44,1.44,0,0,1-.6.7l-1.6.2-1.1.8h6.7l.9-.8c-.6-.1-1.3-.2-2-.3-.3,0-.4-.1-.4-.3a7.5082,7.5082,0,0,1,.7-2Z" transform="translate(-7.0115 -26.342)" style="fill:#eceded"/><path d="M113.0585,88.45Z" transform="translate(-7.0115 -26.342)" style="fill:#fff"/><path d="M78.7585,91.55h5.7v11.9c0,4.3-3.4,5.9-9.5,5.9-6.3,0-9.6-1.4-9.6-5.7v-12h5.7v11c0,2.7,1.7,3.1,3.6,3.1,2.1.1,4.3-.4,4.3-3.1v-11h-.2Z" transform="translate(-7.0115 -26.342)" style="fill:#fff"/><path d="M137.3585,96.85h-4.5c-2.5-4.6-9.1-.6-4.6.8.6.1,1.5.3,2.5.4,4.7,1.1,7.1,2.9,7.1,5.6-.1,3.9-3.1,6.1-8.8,6-6.6,0-8-2.8-8.5-6.6h5.3c.1.7,1.3,1.8,1.7,2.2a3.2074,3.2074,0,0,0,1.8.4c1.8,0,2.7-.4,2.7-1.3,0-.7-1.3-1.4-3.6-1.8-4.9-1.1-7.3-3.1-7.3-5.9.1-3.8,2.8-5.6,8.1-5.7C133.9585,91.25,136.6585,93.25,137.3585,96.85Z" transform="translate(-7.0115 -26.342)" style="fill:#fff"/><polygon points="133.147 69.708 133.147 65.208 151.847 65.208 151.847 69.708 144.947 69.708 144.947 84.108 139.947 84.108 139.947 69.708 133.147 69.708" style="fill:#fff"/><path d="M169.8585,91.55a10.1169,10.1169,0,0,1,9.6,6.7h-5.4a5.1674,5.1674,0,0,0-4.2-2,5.2009,5.2009,0,1,0,0,10.4,5.0032,5.0032,0,0,0,4.3-2.2h5.3a10.25,10.25,0,0,1-9.6,7,9.9531,9.9531,0,1,1,0-19.9Z" transform="translate(-7.0115 -26.342)" style="fill:#fff"/><path d="M88.4585,109.55a59.8846,59.8846,0,0,0-6,19c-1.3,11.7,3.8,18,15.9,17,11.4-1,27.6-8.5,43-22.9,3.2-3.1,6.3-6.1,9.1-9.2h-7.7c-14.2,14.9-31.4,27.5-43,29.3-18.1,2.8-17-9.9-12.4-20.5a91.2554,91.2554,0,0,1,4.3-8.9A19.5372,19.5372,0,0,1,88.4585,109.55Zm24.3-22.9c16.8-15.8,32.1-25.4,43.3-27.1,11.7-1.7,13.8,6,10.5,18a49.3584,49.3584,0,0,1-3.5,8.5h5.2a46.8221,46.8221,0,0,0,2.7-9.1c2.2-12.7-2.5-20.8-16.1-20.4-12.7.4-28.8,9.2-46.1,25.4l-1.7,1.7A25.6945,25.6945,0,0,1,112.7586,86.65Z" transform="translate(-7.0115 -26.342)" style="fill:#fff"/><path d="M131.6585,132.45c8.2,5.9,16.8,9.9,23.2,11.2,14.8,3.6,14.1-11,10.3-21.4a69.7775,69.7775,0,0,0-4-8.8h4.9a61.25,61.25,0,0,1,3.9,15.1c1.3,11.7-4.9,19-16.8,18-7.4-.6-16.6-4.2-26.2-10.9C128.4585,134.55,130.0585,133.55,131.6585,132.45Z" transform="translate(-7.0115 -26.342)" style="fill:#fff"/><path d="M139.9585,86.25c-4-4.2-8.1-7.8-12-11.2,1.5-1.3,3.1-2.4,4.6-3.5,4.2,3.2,8.4,7,12.7,11l3.6,3.6h-8.9Z" transform="translate(-7.0115 -26.342)" style="fill:#fff"/><path d="M110.1585,113.75c4.6,4.5,9.5,8.8,14.1,12.8a7.0005,7.0005,0,0,0,1,.8c-1.5,1.3-3.2,2.4-4.7,3.5-3.1-2.5-6-5.2-9.1-8.2-2.4-2.4-4.6-4.7-6.7-7.1h0a20.9029,20.9029,0,0,1-2.5.1,15.0866,15.0866,0,0,1-15.1-15.1,14.1336,14.1336,0,0,1,2-7.4,54.2734,54.2734,0,0,1-5.7-16.1c-2.2-12.7,3.1-21.5,16.2-21.1,7.7.3,16.6,4,26.4,10.7-1.5,1.1-3.1,2.1-4.6,3.4-8.9-6.6-17.2-10.3-23.7-10.6-7.8-.3-13.1,8.4-10.9,20.7a36.4035,36.4035,0,0,0,4,10.6h0a37.7564,37.7564,0,0,0,3.2,4.9,10.8582,10.8582,0,0,0,2.9,13.7c3.6,2.7,8.7,1.8,12.7-2.5l-2.9-2.2c-4.7,4.5-10.3,2.2-10.2-3.8h14.8v-.3c.3-5.7-2.5-10.3-8.2-10.3a10.26,10.26,0,0,0-7.5,3.1,14.9781,14.9781,0,0,0-1.1,1.3l-2.8-4.9a14.73,14.73,0,0,1,10.5-4.3,15.0865,15.0865,0,0,1,15.1,15.1A14.673,14.673,0,0,1,110.1585,113.75Z" transform="translate(-7.0115 -26.342)" style="fill:#fff"/><path d="M103.4585,93.55a4.634,4.634,0,0,1,4.5,4.6v.1h-10.5v-.1A6.0418,6.0418,0,0,1,103.4585,93.55Z" transform="translate(-7.0115 -26.342)" style="fill:#fff"/><path d="M214.2586,87.85h0c2,10.6,16.5,18.2,14.6,36.1,3.4-27.1,11.9-31.4,7.1-45.8,5.2,7.1,7.5,20,5.5,29.1-3,13.9-9.3,14.6-15.3,32C226.9585,117.65,211.9585,110.85,214.2586,87.85Z" transform="translate(-7.0115 -26.342)" style="fill:#e94d11"/><path d="M135.7586,204.75c17.1-1.7,21.4-11.5,42.2-19.9-10.2,8.2-12,22.1-32,22.7,22.3.1,37.6,8.6,53.8-2.1-9.7,10.8-21,14-31.7,13.6-11.9-.4-20.6-6-30.5-10.7-2.5-1.2-4.7-1-7.3-.3l-1.8.6c-11.4,4-23,16.7-23,16.7s-3.8-3.9-4-4.2c-.1-.2,10-9.3,22.3-13.8l.8-.3c1.4-.5,2.9-.9,4.3-1.3.2,0,.4-.1.6-.1a29.3105,29.3105,0,0,1,2.9-.5C133.5585,204.95,134.6585,204.85,135.7586,204.75Z" transform="translate(-7.0115 -26.342)" style="fill:#e94d11"/><path d="M223.6585,81.65h0c-.8-1.5-3.2-4.4-5.4-7.3a51.529,51.529,0,0,1-7.4-11.8c-4.8-11.2-7.5-15.5-10.4-19.8,0-.1,2.1,1.4,4.9,3.2,4.1,2.8,9.8,6.8,12.8,11.6,4.6,7.2,5,14.7,5.1,19.7C223.2586,78.85,223.9585,81.45,223.6585,81.65Z" transform="translate(-7.0115 -26.342)" style="fill:#e94d11"/><path d="M228.8586,108.75h0c-3.2-15.9-25-24.6-20-45.1.4,12.3,15.5,15.9,19.1,33.6-3.1-19.3,1.9-28.9-7-38.1,10.3,5.7,13.2,13.5,13.2,21.8C234.1585,90.55,229.7586,99.25,228.8586,108.75Z" transform="translate(-7.0115 -26.342)" style="fill:#e94d11"/><path d="M161.6585,206.15h0c7-4,11.9-8.6,18.2-20.5,6.5-12.3,19.1-21.9,20.1-22.6-9.8,13-6.5,28.6-26.1,38.9,4.2-1.3,13.1-6.8,26.7-9.4,8.7-1.7,18.3-6.2,23.5-13.7-1.9,7.1-9.4,16.9-26.1,24.4C182.8585,210.05,177.9585,204.15,161.6585,206.15Z" transform="translate(-7.0115 -26.342)" style="fill:#e94d11"/><path d="M213.3585,168.25h0c3.8-13,2.5-17.3,1.8-24.5-.8-8-1.9-16.6,1.6-31.5-.7,11.5,12.7,24.6,3.2,44.9,2-2.8,5.4-12.8,11.1-20.5,5.2-7,10.7-14.5,11.4-24.2,1.7,4.7,1.4,19.8-6.2,33.2C230.9585,155.05,222.2586,158.85,213.3585,168.25Z" transform="translate(-7.0115 -26.342)" style="fill:#e94d11"/><path d="M189.2586,192.25h0c8.5-8.8,11.6-23.8,14.6-33.2,2.4-7.6,4-12.4,9.1-19-3.5,9.4-1.3,16.9-2.4,25-.8,5.3-2.9,10.8-9.1,17.4,3.6-2,8.7-8.5,15.7-13.2,9.2-6.2,18.5-11.3,21.2-21.6.7,1.1-2.2,19.3-14.3,28.3C213.8585,183.55,198.2586,188.65,189.2586,192.25Z" transform="translate(-7.0115 -26.342)" style="fill:#e94d11"/><path d="M36.0585,87.85h0c-2,10.6-16.5,18.2-14.6,36.1-3.4-27.1-11.9-31.4-7.1-45.8-5.2,7.1-7.5,20-5.5,29.1,3,13.9,9.3,14.6,15.3,32C23.4585,117.65,38.4585,110.85,36.0585,87.85Z" transform="translate(-7.0115 -26.342)" style="fill:#e94d11"/><path d="M114.5585,204.75c-17.1-1.7-21.4-11.5-42.2-19.9,10.2,8.2,12,22.1,32,22.7-22.3.1-37.6,8.6-53.8-2.1,9.7,10.8,21,14,31.7,13.6,11.9-.4,20.6-6,30.5-10.7,2.5-1.2,4.7-1,7.3-.3l1.8.6c11.4,4,23,16.7,23,16.7s3.8-3.9,4-4.2c.1-.2-10-9.3-22.3-13.8l-.8-.3c-1.4-.5-2.9-.9-4.3-1.3-.2,0-.4-.1-.6-.1a29.3105,29.3105,0,0,0-2.9-.5C116.7586,204.95,115.6585,204.85,114.5585,204.75Z" transform="translate(-7.0115 -26.342)" style="fill:#e94d11"/><path d="M26.6585,81.65h0c.8-1.5,3.2-4.4,5.4-7.3a51.5324,51.5324,0,0,0,7.4-11.8c4.8-11.2,7.5-15.5,10.4-19.8,0-.1-2.1,1.4-4.9,3.2-4.1,2.8-9.8,6.8-12.8,11.6-4.6,7.2-5,14.7-5.1,19.7C27.0585,78.85,26.3585,81.45,26.6585,81.65Z" transform="translate(-7.0115 -26.342)" style="fill:#e94d11"/><path d="M21.4585,108.75h0c3.2-15.9,25-24.6,20-45.1-.4,12.3-15.5,15.9-19.1,33.6,3.1-19.3-1.9-28.9,7-38.1-10.3,5.7-13.2,13.5-13.2,21.8C16.2585,90.55,20.5585,99.25,21.4585,108.75Z" transform="translate(-7.0115 -26.342)" style="fill:#e94d11"/><path d="M88.6585,206.15h0c-7-4-11.9-8.6-18.2-20.5-6.5-12.3-19.1-21.9-20.1-22.6,9.8,13,6.5,28.6,26.1,38.9-4.2-1.3-13.1-6.8-26.7-9.4-8.7-1.7-18.3-6.2-23.5-13.7,1.9,7.1,9.4,16.9,26.1,24.4C67.4585,210.05,72.3585,204.15,88.6585,206.15Z" transform="translate(-7.0115 -26.342)" style="fill:#e94d11"/><path d="M36.9585,168.25h0c-3.8-13-2.6-17.3-1.8-24.5.8-8,1.9-16.6-1.6-31.5.7,11.5-12.7,24.6-3.2,44.9-2-2.8-5.4-12.8-11.1-20.5-5.2-7-10.7-14.5-11.4-24.2-1.7,4.7-1.4,19.8,6.2,33.2C19.3585,155.05,28.0585,158.85,36.9585,168.25Z" transform="translate(-7.0115 -26.342)" style="fill:#e94d11"/><path d="M61.0585,192.25h0c-8.5-8.8-11.6-23.8-14.6-33.2-2.4-7.6-4-12.4-9.1-19,3.5,9.4,1.3,16.9,2.4,25,.8,5.3,2.9,10.8,9.1,17.4-3.6-2-8.7-8.5-15.7-13.2-9.2-6.2-18.5-11.3-21.2-21.6-.7,1.1,2.2,19.3,14.3,28.3C36.4585,183.55,52.0585,188.65,61.0585,192.25Z" transform="translate(-7.0115 -26.342)" style="fill:#e94d11"/></g></svg>